<svg width="189" height="163" viewBox="0 0 189 163" fill="none" xmlns="http://www.w3.org/2000/svg" role="img" aria-labelledby="title desc">
  <title id="title">Product Spec Agent Icon</title>
  <desc id="desc">A clean vector recreation of the Product Spec Agent icon: blue outlined document with folded corner, purple AI sparkle, small diamond particles, and three rounded specification lines.</desc>
  <defs>
    <linearGradient id="docStroke" x1="56" y1="3" x2="159" y2="145" gradientUnits="userSpaceOnUse">
      <stop offset="0" stop-color="#6C7CFF"></stop>
      <stop offset="0.42" stop-color="#5177FF"></stop>
      <stop offset="0.74" stop-color="#128FE7"></stop>
      <stop offset="1" stop-color="#10B9F0"></stop>
    </linearGradient>
    <linearGradient id="sparkFill" x1="25" y1="63" x2="89" y2="132" gradientUnits="userSpaceOnUse">
      <stop offset="0" stop-color="#8B6DFF"></stop>
      <stop offset="0.5" stop-color="#7A62F2"></stop>
      <stop offset="1" stop-color="#5E74FF"></stop>
    </linearGradient>
    <linearGradient id="lineStroke" x1="105" y1="72" x2="162" y2="72" gradientUnits="userSpaceOnUse">
      <stop offset="0" stop-color="#8A67FF"></stop>
      <stop offset="1" stop-color="#4777FF"></stop>
    </linearGradient>
    <filter id="softGlow" x="-20%" y="-20%" width="140%" height="140%" color-interpolation-filters="sRGB">
      <feDropShadow dx="0" dy="0" stdDeviation="2.2" flood-color="#3B7BFF" flood-opacity="0.55"></feDropShadow>
      <feDropShadow dx="0" dy="0" stdDeviation="5" flood-color="#02A6FF" flood-opacity="0.22"></feDropShadow>
    </filter>
    <filter id="sparkGlow" x="-35%" y="-35%" width="170%" height="170%" color-interpolation-filters="sRGB">
      <feDropShadow dx="0" dy="0" stdDeviation="2" flood-color="#8667FF" flood-opacity="0.7"></feDropShadow>
      <feDropShadow dx="0" dy="0" stdDeviation="5" flood-color="#5C6EFF" flood-opacity="0.25"></feDropShadow>
    </filter>
  </defs>

  
  <g filter="url(#softGlow)">
    
    <path d="M65 57V11C65 6.58 68.58 3 73 3H129L176 50V140C176 144.42 172.42 148 168 148H76C71.58 148 68 144.42 68 140V134" stroke="url(#docStroke)" stroke-width="7" stroke-linecap="round" stroke-linejoin="round"></path>

    
    <path d="M130 4V42C130 46.42 133.58 50 138 50H176" stroke="url(#docStroke)" stroke-width="7" stroke-linecap="round" stroke-linejoin="round"></path>
  </g>

  
  <g filter="url(#softGlow)" stroke="url(#lineStroke)" stroke-width="7" stroke-linecap="round">
    <path d="M108 75H156"></path>
    <path d="M108 99H156"></path>
    <path d="M108 124H156"></path>
  </g>

  
  <g filter="url(#sparkGlow)">
    <path d="M48.5 54.5C55.1 76.9 66.6 88.2 88.5 94.5C66.6 100.8 55.1 112.1 48.5 134.5C41.9 112.1 30.4 100.8 8.5 94.5C30.4 88.2 41.9 76.9 48.5 54.5Z" fill="url(#sparkFill)"></path>
    <path d="M48.5 54.5C55.1 76.9 66.6 88.2 88.5 94.5C66.6 100.8 55.1 112.1 48.5 134.5C41.9 112.1 30.4 100.8 8.5 94.5C30.4 88.2 41.9 76.9 48.5 54.5Z" stroke="#9B87FF" stroke-width="1.2" stroke-linejoin="round"></path>
  </g>

  
  <g fill="#8268F7" filter="url(#sparkGlow)">
    <path d="M4.75 79L9.5 83.75L4.75 88.5L0 83.75L4.75 79Z"></path>
    <path d="M30.4 58L35.2 62.8L30.4 67.6L25.6 62.8L30.4 58Z"></path>
    <path d="M4.75 111L9.5 115.75L4.75 120.5L0 115.75L4.75 111Z"></path>
    <path d="M27.4 126L31.8 130.4L27.4 134.8L23 130.4L27.4 126Z"></path>
  </g>
</svg>